<svg xmlns="http://www.w3.org/2000/svg" viewBox="0 0 650.02 154">
	<defs>
		<style>
			.cls-1 {
				fill: #63e5ff;
			}
		</style>
	</defs>
	<g id="ToToday">
		<g id="Layer_7" data-name="Layer 7">
			<path d="M56.47,117.68H33.79v-91H-.39V4h91V26.72H56.47Z" />
			<path d="M232.46,117.68H209.78v-91H175.6V4h91V26.72h-34.1Z" />
			<path
				d="M348.31,74.46a45.6,45.6,0,0,1-3.41,17.72,44.32,44.32,0,0,1-9.27,14.2,43.54,43.54,0,0,1-13.76,9.44,43.18,43.18,0,0,1-33.78,0A43.48,43.48,0,0,1,265,92.18a45.78,45.78,0,0,1-3.41-17.72A46.5,46.5,0,0,1,265,56.54a43.92,43.92,0,0,1,9.32-14.24,43.2,43.2,0,0,1,13.8-9.39,41.88,41.88,0,0,1,16.85-3.41,44.52,44.52,0,0,1,16.93,3.21,41,41,0,0,1,13.76,9.12A43.21,43.21,0,0,1,344.9,56,47.92,47.92,0,0,1,348.31,74.46ZM320.16,91.19a22,22,0,0,0,4.64-7.29,27,27,0,0,0,0-18.92,22.4,22.4,0,0,0-4.64-7.29A19.86,19.86,0,0,0,313.3,53a22.28,22.28,0,0,0-16.73,0,19.52,19.52,0,0,0-6.82,4.68A22.22,22.22,0,0,0,285.19,65a25.77,25.77,0,0,0-1.66,9.48,24.52,24.52,0,0,0,1.66,9.12,22.86,22.86,0,0,0,4.56,7.29,21.19,21.19,0,0,0,6.82,4.88,20,20,0,0,0,8.37,1.79,21.15,21.15,0,0,0,8.36-1.67" />
			<path
				d="M423.81-1V35.34a42.83,42.83,0,0,0-5-2.44,44.52,44.52,0,0,0-16.93-3.21A42.1,42.1,0,0,0,385,33.1a43.34,43.34,0,0,0-13.79,9.4,43.81,43.81,0,0,0-9.32,14.24,46.47,46.47,0,0,0-3.41,17.92,45.78,45.78,0,0,0,3.41,17.72A43.45,43.45,0,0,0,385,116a43.09,43.09,0,0,0,33.79,0,43.51,43.51,0,0,0,13.76-9.43,48.21,48.21,0,0,0,13-35.56V-1Zm-2.07,85.13a21.93,21.93,0,0,1-4.64,7.3,20.71,20.71,0,0,1-6.86,4.68,21.15,21.15,0,0,1-8.36,1.66A20,20,0,0,1,393.51,96a21.34,21.34,0,0,1-6.82-4.88,22.86,22.86,0,0,1-4.56-7.29,24.57,24.57,0,0,1-1.67-9.12,25.77,25.77,0,0,1,1.67-9.48,22.37,22.37,0,0,1,4.56-7.3,19.62,19.62,0,0,1,6.82-4.67,22.28,22.28,0,0,1,16.73,0,20,20,0,0,1,6.86,4.67,22.55,22.55,0,0,1,4.64,7.3,27,27,0,0,1,0,18.91Z" />
			<path
				d="M547.42,119.1V78.31a48.16,48.16,0,0,0-13-35.56,43.43,43.43,0,0,0-13.76-9.44,43.07,43.07,0,0,0-33.78,0A43.48,43.48,0,0,0,463.71,57a45.78,45.78,0,0,0-3.41,17.72,46.5,46.5,0,0,0,3.41,17.92A43.93,43.93,0,0,0,473,106.82a43.18,43.18,0,0,0,13.8,9.4,42.08,42.08,0,0,0,16.85,3.41,44.48,44.48,0,0,0,16.93-3.21,43.61,43.61,0,0,0,5-2.43v5.11ZM525.25,74.67a25.36,25.36,0,0,1-1.7,9.48,22.67,22.67,0,0,1-4.64,7.29,20,20,0,0,1-6.86,4.68,22.28,22.28,0,0,1-16.73,0,19.42,19.42,0,0,1-6.82-4.68,22.32,22.32,0,0,1-4.56-7.29,25.77,25.77,0,0,1-1.67-9.48,24.53,24.53,0,0,1,1.67-9.12,23,23,0,0,1,4.56-7.3,21.21,21.21,0,0,1,6.82-4.87,19.93,19.93,0,0,1,8.36-1.79,21.24,21.24,0,0,1,8.37,1.67,20.82,20.82,0,0,1,6.86,4.68,22.14,22.14,0,0,1,4.64,7.29A25.45,25.45,0,0,1,525.25,74.67Z" />
			<path
				d="M627.37,74.63a25.08,25.08,0,0,1-1.7,9.17A22.51,22.51,0,0,1,621,91.09a19.86,19.86,0,0,1-6.86,4.68,22.28,22.28,0,0,1-16.73,0,19.61,19.61,0,0,1-6.82-4.68,22.32,22.32,0,0,1-4.56-7.29,25.72,25.72,0,0,1-1.66-9.17s-.4-39.08-.07-44.47H562.1l.34,44.47a46.16,46.16,0,0,0,3.4,17.61,43.92,43.92,0,0,0,9.32,14.24,43.2,43.2,0,0,0,13.8,9.39,41.88,41.88,0,0,0,16.85,3.41,44.52,44.52,0,0,0,16.93-3.21,42.78,42.78,0,0,0,5-2.43V153h21.8V78a30.07,30.07,0,0,0,.09-3.33l-.3-44.47H627.09Z" />
			<path class="cls-1"
				d="M172.33,74.46a45.78,45.78,0,0,1-3.41,17.72,44.52,44.52,0,0,1-9.28,14.2,43.43,43.43,0,0,1-13.76,9.44,43.18,43.18,0,0,1-33.78,0A43.48,43.48,0,0,1,89,92.18a45.78,45.78,0,0,1-3.41-17.72A46.5,46.5,0,0,1,89,56.54,44.08,44.08,0,0,1,98.3,42.3a43.31,43.31,0,0,1,13.8-9.39A41.91,41.91,0,0,1,129,29.5a44.48,44.48,0,0,1,16.93,3.21,40.86,40.86,0,0,1,13.76,9.12A43.39,43.39,0,0,1,168.92,56,48.11,48.11,0,0,1,172.33,74.46Z" />
			<path d="M170.33,35.56,181.77,47l-57.42,57.25L95.8,75.71l11.47-11.48,17.2,17.2Z" />
		</g>
	</g>
</svg>
