<svg xmlns="http://www.w3.org/2000/svg" viewBox="0 0 665.37 163"><defs><style>.cls-1{fill:#161320;}.cls-2{fill:#96cdfb;}</style></defs><g id="ToToday"><g id="Layer_5" data-name="Layer 5"><path class="cls-1" d="M50.71,124.8a38.51,38.51,0,0,1-15.41-3.11,40,40,0,0,1-21.17-21.17A38.55,38.55,0,0,1,11,85.11V58.76H0V36.22H11V.76H33.56V36.22h34.3V58.76H33.56V85.11a16.89,16.89,0,0,0,5,12.09A17.36,17.36,0,0,0,44,100.89a16.67,16.67,0,0,0,6.71,1.37H67.86V124.8Z"/><path class="cls-1" d="M230.63,124.8a38.55,38.55,0,0,1-15.41-3.11,40.1,40.1,0,0,1-21.17-21.17,38.55,38.55,0,0,1-3.11-15.41V58.76h-11V36.22h11V.76h22.54V36.22h34.3V58.76h-34.3V85.11a17,17,0,0,0,5,12.09,17.47,17.47,0,0,0,5.47,3.69,16.71,16.71,0,0,0,6.71,1.37h17.15V124.8Z"/><path class="cls-1" d="M346.44,79.91a48.53,48.53,0,0,1-3.61,18.76,47,47,0,0,1-9.82,15,45.9,45.9,0,0,1-14.57,10,45.59,45.59,0,0,1-35.75,0,46,46,0,0,1-24.47-25,48.35,48.35,0,0,1-3.61-18.76,49.08,49.08,0,0,1,3.61-19,46.4,46.4,0,0,1,9.86-15.07,45.84,45.84,0,0,1,14.61-9.94,44.37,44.37,0,0,1,17.83-3.61,47.19,47.19,0,0,1,17.92,3.39A43.46,43.46,0,0,1,333,45.37a45.77,45.77,0,0,1,9.82,15A51,51,0,0,1,346.44,79.91Zm-29.8,17.71a23.4,23.4,0,0,0,4.91-7.72,28.73,28.73,0,0,0,0-20,24,24,0,0,0-4.91-7.73,21.31,21.31,0,0,0-7.26-4.95,23.65,23.65,0,0,0-17.71,0,20.87,20.87,0,0,0-7.22,4.95,23.79,23.79,0,0,0-4.83,7.73,27.31,27.31,0,0,0-1.76,10,26.07,26.07,0,0,0,1.76,9.65,24.29,24.29,0,0,0,4.83,7.72,22.6,22.6,0,0,0,7.22,5.16,21.12,21.12,0,0,0,8.85,1.89,22.53,22.53,0,0,0,8.86-1.76"/><path class="cls-1" d="M426.34,0V38.5a45.45,45.45,0,0,0-23.21-6,44.58,44.58,0,0,0-17.84,3.6,45.87,45.87,0,0,0-14.6,9.95,46.59,46.59,0,0,0-9.87,15.07,49.27,49.27,0,0,0-3.61,19,48.57,48.57,0,0,0,3.61,18.76,46.09,46.09,0,0,0,24.47,25,45.62,45.62,0,0,0,35.76,0,46,46,0,0,0,14.56-10,50.94,50.94,0,0,0,13.81-37.64V0Zm-2.19,90.1a23.19,23.19,0,0,1-4.91,7.73,22.2,22.2,0,0,1-7.26,5,22.51,22.51,0,0,1-8.85,1.76,21.14,21.14,0,0,1-8.86-1.89,22.71,22.71,0,0,1-7.22-5.16,24.09,24.09,0,0,1-4.82-7.72,25.87,25.87,0,0,1-1.77-9.65,27.11,27.11,0,0,1,1.77-10,23.6,23.6,0,0,1,4.82-7.73,21,21,0,0,1,7.22-5,23.65,23.65,0,0,1,17.71,0,21.31,21.31,0,0,1,7.26,5,23.81,23.81,0,0,1,4.91,7.73,28.56,28.56,0,0,1,0,20Z"/><path class="cls-1" d="M557.18,127.16V84a51.1,51.1,0,0,0-13.81-37.64,46,46,0,0,0-14.57-10,45.59,45.59,0,0,0-35.75,0,45.91,45.91,0,0,0-24.47,25A48.31,48.31,0,0,0,465,80.13a49.12,49.12,0,0,0,3.61,19,45.66,45.66,0,0,0,24.47,25,44.37,44.37,0,0,0,17.83,3.61,47,47,0,0,0,17.92-3.4,43.91,43.91,0,0,0,5.29-2.58v5.42Zm-23.47-47a26.74,26.74,0,0,1-1.8,10A23.93,23.93,0,0,1,527,97.88a21.17,21.17,0,0,1-7.26,5,23.65,23.65,0,0,1-17.71,0,20.74,20.74,0,0,1-7.22-5A23.74,23.74,0,0,1,490,90.16a27.35,27.35,0,0,1-1.76-10A26,26,0,0,1,490,70.48a24.44,24.44,0,0,1,4.83-7.73A22.6,22.6,0,0,1,502,57.59a21.12,21.12,0,0,1,8.85-1.89,22.39,22.39,0,0,1,8.86,1.77,21.9,21.9,0,0,1,7.26,5,23.3,23.3,0,0,1,4.91,7.72A26.83,26.83,0,0,1,533.71,80.13Z"/><path class="cls-1" d="M641.8,80.09a26.55,26.55,0,0,1-1.8,9.7,23.76,23.76,0,0,1-4.91,7.72,21,21,0,0,1-7.26,4.95,23.65,23.65,0,0,1-17.71,0,20.6,20.6,0,0,1-7.22-4.95,23.55,23.55,0,0,1-4.82-7.72,27,27,0,0,1-1.76-9.7s-.42-41.37-.07-47.07H572.71l.36,47.07a49.24,49.24,0,0,0,3.6,18.64,46.73,46.73,0,0,0,9.86,15.07,45.84,45.84,0,0,0,14.61,9.94A44.41,44.41,0,0,0,619,127.35,47,47,0,0,0,636.9,124a45.36,45.36,0,0,0,5.29-2.57V163h23.08V83.61a33.56,33.56,0,0,0,.09-3.52L665,33H641.51Z"/><path class="cls-2" d="M165.74,79.57A47.68,47.68,0,0,1,162.2,98a46.33,46.33,0,0,1-9.64,14.74,45.08,45.08,0,0,1-14.29,9.8,44.76,44.76,0,0,1-35.08,0A45.19,45.19,0,0,1,79.19,98a47.5,47.5,0,0,1-3.54-18.4A48.23,48.23,0,0,1,79.19,61a45.67,45.67,0,0,1,9.68-14.79,45,45,0,0,1,14.32-9.75,43.69,43.69,0,0,1,17.5-3.54,46.22,46.22,0,0,1,17.58,3.33,42.34,42.34,0,0,1,14.29,9.47,45,45,0,0,1,9.64,14.74A50.09,50.09,0,0,1,165.74,79.57Z"/><path class="cls-1" d="M163.66,39.18l11.88,11.87L115.91,110.5,86.27,80.86,98.18,69,116,86.8Z"/></g></g></svg>